# xmcd CD database file
#
# Track frame offsets:
#	150
#	13755
#	25855
#	39547
#	50965
#	62335
#	73547
#	86585
#	100917
#	113207
#	123950
#	136072
#	148567
#	162557
#	174785
#	187215
#	199467
#	211935
#	225187
#	238020
#
# Disc length: 3360 seconds
#
# Revision: 0
# Processed by: cddbd v1.4PL0 Copyright (c) Steve Scherf et al.
# Submitted via: CDex 1.40Beta9
#
DISCID=170d1e14
DTITLE=Billy Walker - Just For The Hank Of It
DYEAR=2001
DGENRE=Country
TTITLE0=The Rhumba Boogie
TTITLE1=Yellow Roses
TTITLE2=I'm Movin' On
TTITLE3=Fool Such As I
TTITLE4=Trouble In Mind
TTITLE5=In The Misty Moonlight
TTITLE6=I Don't Hurt Anymore
TTITLE7=The Golden Rocket
TTITLE8=Stolen Moments
TTITLE9=Let Me Go Lover
TTITLE10=Take These Chains From My Heart
TTITLE11=Lovesick Blues
TTITLE12=Cold , Cold Heart
TTITLE13=Kaw Liga
TTITLE14=Your Cheatin' Heart
TTITLE15=Mansion On The Hill
TTITLE16=I'm So Lonesome I Could Cry
TTITLE17=Hey , Good Lookin'
TTITLE18=You Win Again
TTITLE19=Long Gone Lonesome Blues
EXTD=YEAR: 2001 ID3G: 2
EXTT0=
EXTT1=
EXTT2=
EXTT3=
EXTT4=
EXTT5=
EXTT6=
EXTT7=
EXTT8=
EXTT9=
EXTT10=
EXTT11=
EXTT12=
EXTT13=
EXTT14=
EXTT15=
EXTT16=
EXTT17=
EXTT18=
EXTT19=
PLAYORDER=
